<mxfile host="app.diagrams.net" modified="2023-02-15T10:18:55.858Z" agent="5.0 (Macintosh; Intel Mac OS X 10_15_7) AppleWebKit/537.36 (KHTML, like Gecko) Chrome/109.0.0.0 Safari/537.36" etag="nYifDg9rbC1eCHJJiOzt" version="20.8.20" type="github">
  <diagram id="C5RBs43oDa-KdzZeNtuy" name="Page-1">
    <mxGraphModel dx="1907" dy="696" grid="1" gridSize="10" guides="1" tooltips="1" connect="1" arrows="1" fold="1" page="1" pageScale="1" pageWidth="827" pageHeight="1169" math="0" shadow="0">
      <root>
        <mxCell id="WIyWlLk6GJQsqaUBKTNV-0" />
        <mxCell id="WIyWlLk6GJQsqaUBKTNV-1" parent="WIyWlLk6GJQsqaUBKTNV-0" />
        <mxCell id="83IlldNzTZ-UO6l0pXWz-8" value="" style="edgeStyle=orthogonalEdgeStyle;rounded=0;orthogonalLoop=1;jettySize=auto;html=1;" edge="1" parent="WIyWlLk6GJQsqaUBKTNV-1" source="83IlldNzTZ-UO6l0pXWz-2" target="83IlldNzTZ-UO6l0pXWz-3">
          <mxGeometry relative="1" as="geometry" />
        </mxCell>
        <mxCell id="83IlldNzTZ-UO6l0pXWz-2" value="начало" style="ellipse;whiteSpace=wrap;html=1;" vertex="1" parent="WIyWlLk6GJQsqaUBKTNV-1">
          <mxGeometry x="400" y="40" width="120" height="40" as="geometry" />
        </mxCell>
        <mxCell id="83IlldNzTZ-UO6l0pXWz-9" value="" style="edgeStyle=orthogonalEdgeStyle;rounded=0;orthogonalLoop=1;jettySize=auto;html=1;" edge="1" parent="WIyWlLk6GJQsqaUBKTNV-1" source="83IlldNzTZ-UO6l0pXWz-3" target="83IlldNzTZ-UO6l0pXWz-4">
          <mxGeometry relative="1" as="geometry" />
        </mxCell>
        <mxCell id="83IlldNzTZ-UO6l0pXWz-3" value="вывести &quot;Авторизация&lt;br&gt;Введите свой логин:&quot;" style="shape=parallelogram;perimeter=parallelogramPerimeter;whiteSpace=wrap;html=1;fixedSize=1;" vertex="1" parent="WIyWlLk6GJQsqaUBKTNV-1">
          <mxGeometry x="380" y="120" width="160" height="60" as="geometry" />
        </mxCell>
        <mxCell id="83IlldNzTZ-UO6l0pXWz-10" value="" style="edgeStyle=orthogonalEdgeStyle;rounded=0;orthogonalLoop=1;jettySize=auto;html=1;" edge="1" parent="WIyWlLk6GJQsqaUBKTNV-1" source="83IlldNzTZ-UO6l0pXWz-4" target="83IlldNzTZ-UO6l0pXWz-7">
          <mxGeometry relative="1" as="geometry" />
        </mxCell>
        <mxCell id="83IlldNzTZ-UO6l0pXWz-4" value="считать login" style="shape=parallelogram;perimeter=parallelogramPerimeter;whiteSpace=wrap;html=1;fixedSize=1;" vertex="1" parent="WIyWlLk6GJQsqaUBKTNV-1">
          <mxGeometry x="380" y="210" width="160" height="60" as="geometry" />
        </mxCell>
        <mxCell id="83IlldNzTZ-UO6l0pXWz-12" value="" style="edgeStyle=orthogonalEdgeStyle;rounded=0;orthogonalLoop=1;jettySize=auto;html=1;" edge="1" parent="WIyWlLk6GJQsqaUBKTNV-1" source="83IlldNzTZ-UO6l0pXWz-7" target="83IlldNzTZ-UO6l0pXWz-11">
          <mxGeometry relative="1" as="geometry" />
        </mxCell>
        <mxCell id="83IlldNzTZ-UO6l0pXWz-7" value="userIndex = user.FindIndex(x =&amp;gt; x.Login.Contains(login));" style="rounded=0;whiteSpace=wrap;html=1;" vertex="1" parent="WIyWlLk6GJQsqaUBKTNV-1">
          <mxGeometry x="365" y="300" width="190" height="60" as="geometry" />
        </mxCell>
        <mxCell id="83IlldNzTZ-UO6l0pXWz-18" style="edgeStyle=orthogonalEdgeStyle;rounded=0;orthogonalLoop=1;jettySize=auto;html=1;entryX=0.562;entryY=0.012;entryDx=0;entryDy=0;entryPerimeter=0;" edge="1" parent="WIyWlLk6GJQsqaUBKTNV-1" source="83IlldNzTZ-UO6l0pXWz-11" target="83IlldNzTZ-UO6l0pXWz-22">
          <mxGeometry relative="1" as="geometry">
            <mxPoint x="670" y="470" as="targetPoint" />
          </mxGeometry>
        </mxCell>
        <mxCell id="83IlldNzTZ-UO6l0pXWz-32" value="Нет" style="edgeLabel;html=1;align=center;verticalAlign=middle;resizable=0;points=[];" vertex="1" connectable="0" parent="83IlldNzTZ-UO6l0pXWz-18">
          <mxGeometry x="-0.3579" relative="1" as="geometry">
            <mxPoint x="3" y="-10" as="offset" />
          </mxGeometry>
        </mxCell>
        <mxCell id="83IlldNzTZ-UO6l0pXWz-24" value="Да" style="edgeStyle=orthogonalEdgeStyle;rounded=0;orthogonalLoop=1;jettySize=auto;html=1;entryX=0.5;entryY=0;entryDx=0;entryDy=0;" edge="1" parent="WIyWlLk6GJQsqaUBKTNV-1" source="83IlldNzTZ-UO6l0pXWz-11" target="83IlldNzTZ-UO6l0pXWz-19">
          <mxGeometry x="-0.1577" y="-10" relative="1" as="geometry">
            <mxPoint as="offset" />
          </mxGeometry>
        </mxCell>
        <mxCell id="83IlldNzTZ-UO6l0pXWz-11" value="userIndex &amp;gt; -1" style="rhombus;whiteSpace=wrap;html=1;rounded=0;" vertex="1" parent="WIyWlLk6GJQsqaUBKTNV-1">
          <mxGeometry x="370" y="390" width="180" height="80" as="geometry" />
        </mxCell>
        <mxCell id="83IlldNzTZ-UO6l0pXWz-27" value="Да" style="edgeStyle=orthogonalEdgeStyle;rounded=0;orthogonalLoop=1;jettySize=auto;html=1;" edge="1" parent="WIyWlLk6GJQsqaUBKTNV-1" source="83IlldNzTZ-UO6l0pXWz-19" target="83IlldNzTZ-UO6l0pXWz-26">
          <mxGeometry x="-0.3162" y="-15" relative="1" as="geometry">
            <mxPoint as="offset" />
          </mxGeometry>
        </mxCell>
        <mxCell id="83IlldNzTZ-UO6l0pXWz-37" style="edgeStyle=orthogonalEdgeStyle;rounded=0;orthogonalLoop=1;jettySize=auto;html=1;" edge="1" parent="WIyWlLk6GJQsqaUBKTNV-1" source="83IlldNzTZ-UO6l0pXWz-19" target="83IlldNzTZ-UO6l0pXWz-23">
          <mxGeometry relative="1" as="geometry" />
        </mxCell>
        <mxCell id="83IlldNzTZ-UO6l0pXWz-39" value="Нет&lt;br&gt;" style="edgeLabel;html=1;align=center;verticalAlign=middle;resizable=0;points=[];" vertex="1" connectable="0" parent="83IlldNzTZ-UO6l0pXWz-37">
          <mxGeometry x="-0.4868" y="-1" relative="1" as="geometry">
            <mxPoint as="offset" />
          </mxGeometry>
        </mxCell>
        <mxCell id="83IlldNzTZ-UO6l0pXWz-19" value="user[userIndex].isPremium == false" style="rhombus;whiteSpace=wrap;html=1;" vertex="1" parent="WIyWlLk6GJQsqaUBKTNV-1">
          <mxGeometry x="140" y="465" width="180" height="120" as="geometry" />
        </mxCell>
        <mxCell id="83IlldNzTZ-UO6l0pXWz-35" style="edgeStyle=orthogonalEdgeStyle;rounded=0;orthogonalLoop=1;jettySize=auto;html=1;entryX=0.5;entryY=0;entryDx=0;entryDy=0;" edge="1" parent="WIyWlLk6GJQsqaUBKTNV-1" source="83IlldNzTZ-UO6l0pXWz-22" target="83IlldNzTZ-UO6l0pXWz-33">
          <mxGeometry relative="1" as="geometry" />
        </mxCell>
        <mxCell id="83IlldNzTZ-UO6l0pXWz-22" value="вывести &quot;Пользователь с указанным логином не найден&quot;" style="shape=parallelogram;perimeter=parallelogramPerimeter;whiteSpace=wrap;html=1;fixedSize=1;" vertex="1" parent="WIyWlLk6GJQsqaUBKTNV-1">
          <mxGeometry x="597.5" y="480" width="215" height="60" as="geometry" />
        </mxCell>
        <mxCell id="83IlldNzTZ-UO6l0pXWz-40" value="" style="edgeStyle=orthogonalEdgeStyle;rounded=0;orthogonalLoop=1;jettySize=auto;html=1;" edge="1" parent="WIyWlLk6GJQsqaUBKTNV-1" source="83IlldNzTZ-UO6l0pXWz-23" target="83IlldNzTZ-UO6l0pXWz-33">
          <mxGeometry relative="1" as="geometry" />
        </mxCell>
        <mxCell id="83IlldNzTZ-UO6l0pXWz-23" value="вывести &quot;{user[userIndex].Name}, добро пожаловать на сайт!&quot;" style="shape=parallelogram;perimeter=parallelogramPerimeter;whiteSpace=wrap;html=1;fixedSize=1;" vertex="1" parent="WIyWlLk6GJQsqaUBKTNV-1">
          <mxGeometry x="330" y="620" width="260" height="60" as="geometry" />
        </mxCell>
        <mxCell id="83IlldNzTZ-UO6l0pXWz-29" value="" style="edgeStyle=orthogonalEdgeStyle;rounded=0;orthogonalLoop=1;jettySize=auto;html=1;" edge="1" parent="WIyWlLk6GJQsqaUBKTNV-1" source="83IlldNzTZ-UO6l0pXWz-26" target="83IlldNzTZ-UO6l0pXWz-28">
          <mxGeometry relative="1" as="geometry" />
        </mxCell>
        <mxCell id="83IlldNzTZ-UO6l0pXWz-26" value="ADS.ShowADS(random(1, 3)" style="rounded=0;whiteSpace=wrap;html=1;" vertex="1" parent="WIyWlLk6GJQsqaUBKTNV-1">
          <mxGeometry x="-60" y="590" width="160" height="60" as="geometry" />
        </mxCell>
        <mxCell id="83IlldNzTZ-UO6l0pXWz-38" style="edgeStyle=orthogonalEdgeStyle;rounded=0;orthogonalLoop=1;jettySize=auto;html=1;entryX=0;entryY=0.5;entryDx=0;entryDy=0;" edge="1" parent="WIyWlLk6GJQsqaUBKTNV-1" source="83IlldNzTZ-UO6l0pXWz-28" target="83IlldNzTZ-UO6l0pXWz-23">
          <mxGeometry relative="1" as="geometry" />
        </mxCell>
        <mxCell id="83IlldNzTZ-UO6l0pXWz-28" value="вывести&amp;nbsp;&quot;Что бы использовать ресурс без рекламы преобретите пакет &#39;Премиум&#39;&quot;" style="shape=parallelogram;perimeter=parallelogramPerimeter;whiteSpace=wrap;html=1;fixedSize=1;" vertex="1" parent="WIyWlLk6GJQsqaUBKTNV-1">
          <mxGeometry x="-115" y="680" width="270" height="60" as="geometry" />
        </mxCell>
        <mxCell id="83IlldNzTZ-UO6l0pXWz-33" value="конец" style="ellipse;whiteSpace=wrap;html=1;" vertex="1" parent="WIyWlLk6GJQsqaUBKTNV-1">
          <mxGeometry x="630" y="625" width="150" height="50" as="geometry" />
        </mxCell>
      </root>
    </mxGraphModel>
  </diagram>
</mxfile>
